<svg width="102" height="102" viewBox="0 0 102 102" fill="none" xmlns="http://www.w3.org/2000/svg">
<path d="M51 1.59375C23.7156 1.59375 1.59375 23.7236 1.59375 51C1.59375 78.2924 23.7156 100.406 51 100.406C78.2844 100.406 100.406 78.2924 100.406 51C100.406 23.7236 78.2844 1.59375 51 1.59375ZM51 23.5078C55.6211 23.5078 59.3672 27.2539 59.3672 31.875C59.3672 36.4961 55.6211 40.2422 51 40.2422C46.3789 40.2422 42.6328 36.4961 42.6328 31.875C42.6328 27.2539 46.3789 23.5078 51 23.5078ZM62.1562 74.1094C62.1562 75.4296 61.0858 76.5 59.7656 76.5H42.2344C40.9142 76.5 39.8438 75.4296 39.8438 74.1094V69.3281C39.8438 68.0079 40.9142 66.9375 42.2344 66.9375H44.625V54.1875H42.2344C40.9142 54.1875 39.8438 53.1171 39.8438 51.7969V47.0156C39.8438 45.6954 40.9142 44.625 42.2344 44.625H54.9844C56.3046 44.625 57.375 45.6954 57.375 47.0156V66.9375H59.7656C61.0858 66.9375 62.1562 68.0079 62.1562 69.3281V74.1094Z" fill="white"/>
</svg>
