<svg width="102" height="102" viewBox="0 0 102 102" fill="none" xmlns="http://www.w3.org/2000/svg">
<path d="M0 26.5022V87.8297C0 89.8343 2.02406 91.2049 3.88521 90.4612L28.3333 79.3333V11.3333L3.56292 21.2411C2.51136 21.6617 1.60992 22.3876 0.974861 23.3254C0.339803 24.2632 0.000251849 25.3697 0 26.5022ZM34 79.3333L68 90.6666V22.6666L34 11.3333V79.3333ZM98.1148 11.5387L73.6667 22.6666V90.6666L98.4371 80.7588C99.4888 80.3384 100.39 79.6124 101.025 78.6746C101.661 77.7368 102 76.6302 102 75.4976V14.1701C102 12.1655 99.9759 10.7949 98.1148 11.5387Z" fill="white"/>
</svg>
